<svg xmlns="http://www.w3.org/2000/svg" viewBox="0 0 392.8 116.0" width="393" height="116" role="img" aria-label="Fédération Française du Sport Universitaire (Élan, version long)"><title>Fédération Française du Sport Universitaire (Élan, version long)</title><g transform="translate(8,8)"><defs><clipPath id="elan-long-l"><polygon points="-105.29,455.79 204.50,-281.80 -164.30,-436.69 -474.08,300.89"/></clipPath><clipPath id="elan-long-r"><polygon points="-100.50,457.80 209.29,-279.79 578.08,-124.89 268.30,612.69"/></clipPath></defs><path d="M22,10 V58 A28,28 0 0 0 78,58 V10" fill="none" stroke="#1238C4" stroke-width="24" clip-path="url(#elan-long-l)"/><g transform="translate(3,-8)"><path d="M22,10 V58 A28,28 0 0 0 78,58 V10" fill="none" stroke="#EF2B3C" stroke-width="24" clip-path="url(#elan-long-r)"/></g></g><path d="M141.04 40.5H135.15Q135.06 40.5 135.02 40.61L134.51 44.75Q134.51 44.86 134.6 44.86H138.4Q138.51 44.86 138.58 44.93Q138.65 45.01 138.62 45.12L138.43 46.79Q138.4 46.9 138.33 46.98Q138.25 47.06 138.14 47.06H134.33Q134.22 47.06 134.22 47.17L133.45 53.44Q133.43 53.55 133.35 53.62Q133.28 53.7 133.17 53.7H131.19Q131.08 53.7 131.01 53.62Q130.95 53.55 130.97 53.44L132.79 38.56Q132.82 38.45 132.89 38.38Q132.97 38.3 133.08 38.3H141.33Q141.44 38.3 141.51 38.38Q141.57 38.45 141.55 38.56L141.35 40.24Q141.33 40.35 141.24 40.42Q141.15 40.5 141.04 40.5ZM153.09 40.5H147.18Q147.09 40.5 147.04 40.61L146.54 44.75Q146.54 44.86 146.63 44.86H150.43Q150.54 44.86 150.61 44.93Q150.67 45.01 150.65 45.12L150.45 46.79Q150.43 46.9 150.35 46.98Q150.28 47.06 150.17 47.06H146.36Q146.25 47.06 146.25 47.17L145.72 51.39Q145.72 51.5 145.81 51.5H151.75Q151.86 51.5 151.93 51.58Q151.99 51.65 151.97 51.76L151.77 53.44Q151.75 53.55 151.67 53.62Q151.6 53.7 151.49 53.7H143.22Q143.11 53.7 143.04 53.62Q142.97 53.55 143 53.44L144.82 38.56Q144.84 38.45 144.92 38.38Q145 38.3 145.11 38.3H153.38Q153.49 38.3 153.56 38.38Q153.62 38.45 153.6 38.56L153.38 40.24Q153.38 40.35 153.29 40.42Q153.2 40.5 153.09 40.5ZM148.19 36.76Q148.19 36.67 148.25 36.58L149.75 34.32Q149.79 34.23 149.89 34.19Q149.99 34.14 150.08 34.14H151.69Q151.88 34.14 151.88 34.3Q151.88 34.36 151.82 34.47L150.04 36.72Q149.9 36.89 149.71 36.89H148.39Q148.19 36.89 148.19 36.76ZM155.55 53.44 157.38 38.56Q157.4 38.45 157.48 38.38Q157.55 38.3 157.66 38.3H162.09Q163.96 38.3 165.06 39.3Q166.16 40.3 166.16 42Q166.16 42.22 166.11 42.66L165.3 49.34Q165.06 51.32 163.66 52.51Q162.26 53.7 160.19 53.7H155.77Q155.66 53.7 155.6 53.62Q155.53 53.55 155.55 53.44ZM158.37 51.5 160.48 51.48Q161.43 51.48 162.05 50.83Q162.68 50.18 162.86 49.06L163.6 42.94Q163.65 42.59 163.65 42.46Q163.65 41.56 163.16 41.03Q162.68 40.5 161.84 40.5H159.73Q159.64 40.5 159.6 40.61L158.28 51.39Q158.28 51.5 158.37 51.5ZM178.84 40.5H172.93Q172.84 40.5 172.79 40.61L172.29 44.75Q172.29 44.86 172.38 44.86H176.18Q176.29 44.86 176.36 44.93Q176.42 45.01 176.4 45.12L176.2 46.79Q176.18 46.9 176.1 46.98Q176.03 47.06 175.92 47.06H172.11Q172 47.06 172 47.17L171.47 51.39Q171.47 51.5 171.56 51.5H177.5Q177.61 51.5 177.68 51.58Q177.74 51.65 177.72 51.76L177.52 53.44Q177.5 53.55 177.42 53.62Q177.35 53.7 177.24 53.7H168.97Q168.86 53.7 168.79 53.62Q168.72 53.55 168.75 53.44L170.57 38.56Q170.59 38.45 170.67 38.38Q170.75 38.3 170.86 38.3H179.13Q179.24 38.3 179.31 38.38Q179.37 38.45 179.35 38.56L179.13 40.24Q179.13 40.35 179.04 40.42Q178.95 40.5 178.84 40.5ZM173.94 36.76Q173.94 36.67 174 36.58L175.5 34.32Q175.54 34.23 175.64 34.19Q175.74 34.14 175.83 34.14H177.44Q177.63 34.14 177.63 34.3Q177.63 34.36 177.57 34.47L175.79 36.72Q175.65 36.89 175.46 36.89H174.14Q173.94 36.89 173.94 36.76ZM188.12 53.48 186.6 47.17Q186.56 47.08 186.49 47.08H184.67Q184.56 47.08 184.56 47.19L183.79 53.44Q183.77 53.55 183.69 53.62Q183.61 53.7 183.5 53.7H181.52Q181.41 53.7 181.35 53.62Q181.28 53.55 181.3 53.44L183.13 38.56Q183.15 38.45 183.23 38.38Q183.3 38.3 183.41 38.3H188.34Q190.04 38.3 191 39.33Q191.97 40.37 191.97 42.08Q191.97 42.3 191.93 42.79Q191.75 44.22 190.98 45.27Q190.21 46.33 189.05 46.77Q188.91 46.81 188.96 46.92L190.67 53.39L190.7 53.48Q190.7 53.7 190.45 53.7H188.41Q188.14 53.7 188.12 53.48ZM185.35 40.61 184.82 44.99Q184.78 45.1 184.91 45.1H187.15Q188.14 45.1 188.8 44.35Q189.46 43.6 189.46 42.39Q189.46 41.51 188.99 41.01Q188.52 40.5 187.73 40.5H185.48Q185.39 40.5 185.35 40.61ZM202.06 53.48 201.78 51.13Q201.78 51.04 201.69 51.04H197.29Q197.2 51.04 197.18 51.13L196.37 53.48Q196.28 53.7 196.04 53.7H194.01Q193.7 53.7 193.84 53.41L199.53 38.52Q199.62 38.3 199.86 38.3H202.31Q202.55 38.3 202.57 38.52L204.62 53.41V53.48Q204.62 53.7 204.37 53.7H202.33Q202.09 53.7 202.06 53.48ZM198.06 49.04H201.43Q201.56 49.04 201.56 48.9L200.68 41.69Q200.68 41.62 200.63 41.62Q200.59 41.62 200.57 41.69L197.97 48.9Q197.95 48.97 197.97 49Q197.99 49.04 198.06 49.04ZM217.39 38.56 217.17 40.26Q217.15 40.37 217.07 40.44Q217 40.52 216.89 40.52H213.59Q213.5 40.52 213.45 40.63L211.89 53.44Q211.87 53.55 211.79 53.62Q211.72 53.7 211.61 53.7H209.63Q209.52 53.7 209.45 53.62Q209.38 53.55 209.41 53.44L210.99 40.63Q210.99 40.52 210.88 40.52H207.71Q207.6 40.52 207.54 40.44Q207.47 40.37 207.49 40.26L207.69 38.56Q207.71 38.45 207.79 38.38Q207.87 38.3 207.98 38.3H217.15Q217.39 38.3 217.39 38.56ZM219.17 53.44 220.99 38.56Q221.02 38.45 221.09 38.38Q221.17 38.3 221.28 38.3H223.26Q223.37 38.3 223.44 38.38Q223.5 38.45 223.48 38.56L221.65 53.44Q221.63 53.55 221.55 53.62Q221.48 53.7 221.37 53.7H219.39Q219.28 53.7 219.21 53.62Q219.15 53.55 219.17 53.44ZM226.14 49.85Q226.14 49.63 226.18 49.1L226.93 42.9Q227.1 41.49 227.83 40.4Q228.56 39.31 229.7 38.72Q230.84 38.12 232.25 38.12Q234.21 38.12 235.35 39.22Q236.5 40.32 236.5 42.17Q236.5 42.37 236.45 42.9L235.68 49.1Q235.51 50.53 234.78 51.62Q234.06 52.71 232.9 53.3Q231.75 53.9 230.32 53.9Q228.38 53.9 227.26 52.8Q226.14 51.7 226.14 49.85ZM233.2 49.21 233.99 42.83Q234.01 42.7 234.01 42.44Q234.01 41.47 233.46 40.9Q232.91 40.32 231.99 40.32Q230.98 40.32 230.27 41.02Q229.57 41.71 229.41 42.83L228.64 49.21Q228.62 49.37 228.62 49.65Q228.62 50.58 229.15 51.14Q229.68 51.7 230.6 51.7Q231.64 51.7 232.35 51Q233.07 50.31 233.2 49.21ZM248.66 38.3H250.62Q250.73 38.3 250.79 38.38Q250.86 38.45 250.84 38.56L249.01 53.44Q248.99 53.55 248.91 53.62Q248.83 53.7 248.72 53.7H246.66Q246.46 53.7 246.39 53.5L242.94 43.65Q242.92 43.58 242.87 43.59Q242.83 43.6 242.81 43.69L241.64 53.44Q241.62 53.55 241.54 53.62Q241.46 53.7 241.35 53.7H239.37Q239.26 53.7 239.2 53.62Q239.13 53.55 239.15 53.44L240.98 38.56Q241 38.45 241.08 38.38Q241.16 38.3 241.27 38.3H243.31Q243.53 38.3 243.6 38.5L247.05 48.4Q247.1 48.46 247.14 48.45Q247.18 48.44 247.18 48.35L248.37 38.56Q248.39 38.45 248.47 38.38Q248.55 38.3 248.66 38.3ZM269.26 40.5H263.36Q263.28 40.5 263.23 40.61L262.73 44.75Q262.73 44.86 262.81 44.86H266.62Q266.73 44.86 266.8 44.93Q266.86 45.01 266.84 45.12L266.64 46.79Q266.62 46.9 266.54 46.98Q266.47 47.06 266.36 47.06H262.55Q262.44 47.06 262.44 47.17L261.67 53.44Q261.65 53.55 261.57 53.62Q261.49 53.7 261.38 53.7H259.4Q259.29 53.7 259.23 53.62Q259.16 53.55 259.18 53.44L261.01 38.56Q261.03 38.45 261.11 38.38Q261.19 38.3 261.3 38.3H269.55Q269.66 38.3 269.72 38.38Q269.79 38.45 269.77 38.56L269.57 40.24Q269.55 40.35 269.46 40.42Q269.37 40.5 269.26 40.5ZM278.03 53.48 276.51 47.17Q276.47 47.08 276.4 47.08H274.58Q274.47 47.08 274.47 47.19L273.7 53.44Q273.68 53.55 273.6 53.62Q273.52 53.7 273.41 53.7H271.43Q271.32 53.7 271.26 53.62Q271.19 53.55 271.21 53.44L273.04 38.56Q273.06 38.45 273.14 38.38Q273.21 38.3 273.32 38.3H278.25Q279.95 38.3 280.91 39.33Q281.88 40.37 281.88 42.08Q281.88 42.3 281.84 42.79Q281.66 44.22 280.89 45.27Q280.12 46.33 278.96 46.77Q278.82 46.81 278.87 46.92L280.58 53.39L280.61 53.48Q280.61 53.7 280.36 53.7H278.32Q278.05 53.7 278.03 53.48ZM275.26 40.61 274.73 44.99Q274.69 45.1 274.82 45.1H277.06Q278.05 45.1 278.71 44.35Q279.37 43.6 279.37 42.39Q279.37 41.51 278.9 41.01Q278.43 40.5 277.64 40.5H275.39Q275.3 40.5 275.26 40.61ZM291.97 53.48 291.69 51.13Q291.69 51.04 291.6 51.04H287.2Q287.11 51.04 287.09 51.13L286.28 53.48Q286.19 53.7 285.95 53.7H283.92Q283.61 53.7 283.75 53.41L289.44 38.52Q289.53 38.3 289.77 38.3H292.22Q292.46 38.3 292.48 38.52L294.53 53.41V53.48Q294.53 53.7 294.28 53.7H292.24Q292 53.7 291.97 53.48ZM287.97 49.04H291.34Q291.47 49.04 291.47 48.9L290.59 41.69Q290.59 41.62 290.54 41.62Q290.5 41.62 290.48 41.69L287.88 48.9Q287.86 48.97 287.88 49Q287.9 49.04 287.97 49.04ZM307.48 38.3H309.44Q309.55 38.3 309.61 38.38Q309.68 38.45 309.66 38.56L307.83 53.44Q307.81 53.55 307.73 53.62Q307.65 53.7 307.54 53.7H305.48Q305.28 53.7 305.21 53.5L301.76 43.65Q301.74 43.58 301.69 43.59Q301.65 43.6 301.63 43.69L300.46 53.44Q300.44 53.55 300.36 53.62Q300.28 53.7 300.17 53.7H298.19Q298.08 53.7 298.02 53.62Q297.95 53.55 297.97 53.44L299.8 38.56Q299.82 38.45 299.9 38.38Q299.98 38.3 300.09 38.3H302.13Q302.35 38.3 302.42 38.5L305.87 48.4Q305.92 48.46 305.96 48.45Q306 48.44 306 48.35L307.19 38.56Q307.21 38.45 307.29 38.38Q307.37 38.3 307.48 38.3ZM322.23 43.07 320.23 43.16Q319.99 43.16 320.01 42.9L320.03 42.63Q320.06 42.5 320.06 42.26Q320.06 41.36 319.54 40.84Q319.02 40.32 318.12 40.32Q317.11 40.32 316.43 40.96Q315.74 41.6 315.61 42.63L314.8 49.39Q314.78 49.52 314.78 49.76Q314.78 50.64 315.3 51.16Q315.83 51.68 316.73 51.68Q317.72 51.68 318.41 51.05Q319.09 50.42 319.22 49.39L319.24 49.1Q319.26 48.86 319.53 48.86L321.51 48.95Q321.62 48.95 321.68 49.02Q321.75 49.1 321.73 49.21L321.71 49.3Q321.49 51.17 320.26 52.39Q319.04 53.61 317.22 53.83Q317.09 53.85 317.15 53.96Q317.79 54.73 317.79 55.61Q317.79 55.97 317.64 56.43Q317.39 57.15 316.83 57.47Q316.27 57.79 315.61 57.79Q315.08 57.79 314.62 57.64Q314.42 57.55 314.49 57.31L314.69 56.49Q314.75 56.23 315.02 56.3Q315.24 56.34 315.33 56.34Q315.59 56.34 315.81 56.19Q316.03 56.03 316.12 55.72Q316.18 55.57 316.18 55.35Q316.18 54.65 315.33 53.79L315.19 53.72Q313.83 53.41 313.06 52.41Q312.29 51.41 312.29 49.94Q312.29 49.7 312.33 49.21L313.13 42.74Q313.39 40.65 314.83 39.39Q316.27 38.12 318.38 38.12Q320.32 38.12 321.45 39.17Q322.59 40.21 322.59 41.97Q322.59 42.17 322.54 42.66L322.5 42.85Q322.5 42.94 322.42 43.01Q322.34 43.07 322.23 43.07ZM332.28 53.48 332 51.13Q332 51.04 331.91 51.04H327.51Q327.42 51.04 327.4 51.13L326.58 53.48Q326.5 53.7 326.25 53.7H324.23Q323.92 53.7 324.05 53.41L329.75 38.52Q329.84 38.3 330.08 38.3H332.52Q332.77 38.3 332.79 38.52L334.83 53.41V53.48Q334.83 53.7 334.59 53.7H332.55Q332.3 53.7 332.28 53.48ZM328.28 49.04H331.64Q331.78 49.04 331.78 48.9L330.9 41.69Q330.9 41.62 330.85 41.62Q330.81 41.62 330.79 41.69L328.19 48.9Q328.17 48.97 328.19 49Q328.21 49.04 328.28 49.04ZM338.3 53.44 340.13 38.56Q340.15 38.45 340.23 38.38Q340.31 38.3 340.42 38.3H342.4Q342.51 38.3 342.57 38.38Q342.64 38.45 342.62 38.56L340.79 53.44Q340.77 53.55 340.69 53.62Q340.61 53.7 340.5 53.7H338.52Q338.41 53.7 338.35 53.62Q338.28 53.55 338.3 53.44ZM344.96 50.27Q344.96 50.07 345.01 49.67L345.07 49.1Q345.1 48.99 345.17 48.91Q345.25 48.84 345.36 48.84H347.3Q347.41 48.84 347.47 48.91Q347.54 48.99 347.52 49.1L347.45 49.54Q347.43 49.65 347.43 49.85Q347.43 50.66 348 51.17Q348.57 51.68 349.56 51.68Q350.64 51.68 351.27 51.06Q351.89 50.44 351.89 49.5Q351.89 48.77 351.36 48.28Q350.82 47.78 349.39 46.97Q348.26 46.33 347.57 45.82Q346.88 45.32 346.42 44.56Q345.95 43.8 345.95 42.77Q345.95 42.61 346 42.22Q346.24 40.32 347.6 39.22Q348.97 38.12 350.97 38.12Q352.88 38.12 354.02 39.12Q355.15 40.13 355.15 41.82Q355.15 42.02 355.11 42.46L355.06 42.92Q355.04 43.03 354.96 43.11Q354.89 43.18 354.78 43.18H352.84Q352.73 43.18 352.66 43.11Q352.6 43.03 352.62 42.92L352.66 42.5Q352.69 42.39 352.69 42.17Q352.69 41.36 352.15 40.84Q351.61 40.32 350.66 40.32Q349.74 40.32 349.14 40.82Q348.55 41.31 348.44 42.19Q348.42 42.3 348.42 42.48Q348.42 43.18 348.96 43.68Q349.5 44.17 350.95 44.97Q352.29 45.8 352.91 46.26Q353.52 46.73 353.96 47.43Q354.4 48.13 354.4 49.1Q354.4 49.26 354.36 49.65Q354.12 51.59 352.72 52.73Q351.32 53.88 349.21 53.88Q347.23 53.88 346.1 52.9Q344.96 51.92 344.96 50.27ZM367.68 40.5H361.77Q361.68 40.5 361.63 40.61L361.13 44.75Q361.13 44.86 361.22 44.86H365.02Q365.13 44.86 365.2 44.93Q365.26 45.01 365.24 45.12L365.04 46.79Q365.02 46.9 364.94 46.98Q364.87 47.06 364.76 47.06H360.95Q360.84 47.06 360.84 47.17L360.31 51.39Q360.31 51.5 360.4 51.5H366.34Q366.45 51.5 366.52 51.58Q366.58 51.65 366.56 51.76L366.36 53.44Q366.34 53.55 366.26 53.62Q366.19 53.7 366.08 53.7H357.81Q357.7 53.7 357.63 53.62Q357.56 53.55 357.59 53.44L359.41 38.56Q359.43 38.45 359.51 38.38Q359.59 38.3 359.7 38.3H367.97Q368.08 38.3 368.15 38.38Q368.21 38.45 368.19 38.56L367.97 40.24Q367.97 40.35 367.88 40.42Q367.79 40.5 367.68 40.5Z" fill="#0B1A48"/><path d="M130.51 77.44 132.33 62.56Q132.35 62.45 132.43 62.38Q132.51 62.3 132.62 62.3H137.37Q139.48 62.3 140.71 63.37Q141.95 64.43 141.95 66.24Q141.95 66.44 141.9 66.88L141.13 73.12Q140.96 74.49 140.2 75.52Q139.44 76.56 138.22 77.13Q137 77.7 135.48 77.7H130.73Q130.62 77.7 130.55 77.62Q130.48 77.55 130.51 77.44ZM134.51 74.58 135.92 74.55Q136.56 74.55 137.03 74.05Q137.5 73.54 137.63 72.68L138.29 67.29Q138.32 67.18 138.32 66.94Q138.32 66.24 137.97 65.83Q137.63 65.42 137.02 65.42H135.63Q135.54 65.42 135.5 65.53L134.4 74.47Q134.4 74.58 134.51 74.58ZM144.25 73.61Q144.25 73.1 144.29 72.84L145.55 62.56Q145.57 62.45 145.65 62.38Q145.72 62.3 145.83 62.3H148.87Q148.98 62.3 149.05 62.38Q149.11 62.45 149.09 62.56L147.81 73.01Q147.79 73.12 147.79 73.32Q147.79 73.98 148.16 74.37Q148.52 74.75 149.13 74.75Q149.82 74.75 150.29 74.27Q150.76 73.78 150.85 73.01L152.15 62.56Q152.17 62.45 152.25 62.38Q152.32 62.3 152.43 62.3H155.47Q155.58 62.3 155.65 62.38Q155.71 62.45 155.69 62.56L154.41 72.84Q154.24 74.33 153.47 75.48Q152.7 76.62 151.48 77.25Q150.26 77.88 148.74 77.88Q146.67 77.88 145.46 76.72Q144.25 75.57 144.25 73.61ZM163.18 74.03Q163.18 73.85 163.22 73.45L163.31 72.88Q163.33 72.77 163.41 72.69Q163.49 72.62 163.6 72.62H166.59Q166.7 72.62 166.77 72.69Q166.83 72.77 166.81 72.88L166.77 73.28Q166.68 73.89 167.1 74.32Q167.51 74.75 168.31 74.75Q169.03 74.75 169.42 74.34Q169.8 73.94 169.8 73.39Q169.8 72.88 169.36 72.53Q168.92 72.18 167.67 71.5Q166.61 70.92 165.88 70.41Q165.14 69.89 164.61 69.05Q164.08 68.22 164.08 67.1Q164.08 65.64 164.81 64.51Q165.53 63.38 166.79 62.75Q168.04 62.12 169.56 62.12Q171.63 62.12 172.87 63.22Q174.11 64.32 174.11 66.13Q174.11 66.3 174.07 66.74L174.03 67.16Q174 67.27 173.92 67.35Q173.83 67.43 173.72 67.43H170.75Q170.51 67.43 170.51 67.16L170.57 66.79Q170.64 66.15 170.24 65.7Q169.85 65.25 169.08 65.25Q168.48 65.25 168.1 65.58Q167.71 65.91 167.62 66.48Q167.58 66.9 167.78 67.22Q167.98 67.54 168.44 67.84Q168.9 68.15 169.87 68.68L170.48 69.05Q171.47 69.67 172.03 70.11Q172.6 70.55 172.99 71.23Q173.39 71.91 173.39 72.84Q173.39 73.01 173.34 73.41Q173.08 75.48 171.55 76.68Q170.02 77.88 167.78 77.88Q165.64 77.88 164.41 76.83Q163.18 75.79 163.18 74.03ZM187.31 66.37Q187.31 66.63 187.26 67.16Q187 69.3 185.59 70.59Q184.18 71.89 182.14 71.89H180.14Q180.05 71.89 180 72L179.34 77.44Q179.32 77.55 179.25 77.62Q179.17 77.7 179.06 77.7H176.02Q175.91 77.7 175.85 77.62Q175.78 77.55 175.8 77.44L177.63 62.56Q177.65 62.45 177.73 62.38Q177.8 62.3 177.91 62.3H183.3Q185.15 62.3 186.23 63.4Q187.31 64.5 187.31 66.37ZM183.74 66.9Q183.74 66.22 183.36 65.82Q182.97 65.42 182.34 65.42H180.93Q180.84 65.42 180.8 65.53L180.4 68.9Q180.36 69.01 180.49 69.01H181.9Q182.69 69.01 183.22 68.44Q183.74 67.87 183.74 66.9ZM189.22 73.56Q189.22 73.3 189.26 72.77L189.94 67.23Q190.12 65.71 190.91 64.55Q191.7 63.4 192.96 62.76Q194.21 62.12 195.75 62.12Q197.88 62.12 199.13 63.3Q200.37 64.48 200.37 66.46Q200.37 66.7 200.33 67.23L199.64 72.77Q199.45 74.31 198.65 75.48Q197.86 76.64 196.61 77.28Q195.35 77.92 193.81 77.92Q191.7 77.92 190.46 76.73Q189.22 75.54 189.22 73.56ZM196.08 72.9 196.78 67.14Q196.81 67.03 196.81 66.83Q196.81 66.13 196.42 65.69Q196.04 65.25 195.38 65.25Q194.63 65.25 194.12 65.76Q193.62 66.28 193.51 67.14L192.78 72.9Q192.76 73.01 192.76 73.23Q192.76 73.94 193.15 74.36Q193.55 74.77 194.21 74.77Q194.94 74.77 195.46 74.26Q195.99 73.74 196.08 72.9ZM208.83 77.48 207.56 71.65Q207.51 71.56 207.45 71.56H206.59Q206.55 71.56 206.51 71.59Q206.48 71.63 206.48 71.67L205.78 77.44Q205.75 77.55 205.68 77.62Q205.6 77.7 205.49 77.7H202.45Q202.34 77.7 202.28 77.62Q202.21 77.55 202.23 77.44L204.06 62.56Q204.08 62.45 204.16 62.38Q204.24 62.3 204.35 62.3H209.8Q211.61 62.3 212.66 63.39Q213.72 64.48 213.72 66.3Q213.72 66.81 213.67 67.07Q213.52 68.44 212.82 69.48Q212.11 70.53 211.01 71.06Q210.95 71.08 210.95 71.19L212.53 77.39V77.46Q212.53 77.7 212.27 77.7H209.1Q208.88 77.7 208.83 77.48ZM207.23 65.53 206.85 68.66Q206.81 68.77 206.94 68.77H208.44Q209.21 68.77 209.69 68.24Q210.18 67.71 210.18 66.81Q210.18 66.17 209.81 65.8Q209.45 65.42 208.86 65.42H207.36Q207.27 65.42 207.23 65.53ZM227.44 62.56 227.11 65.18Q227.09 65.29 227.01 65.37Q226.93 65.45 226.82 65.45H223.61Q223.5 65.45 223.5 65.56L222.05 77.44Q222.03 77.55 221.94 77.62Q221.85 77.7 221.74 77.7H218.73Q218.62 77.7 218.55 77.62Q218.49 77.55 218.51 77.44L219.96 65.56Q219.96 65.45 219.87 65.45H216.79Q216.68 65.45 216.62 65.37Q216.55 65.29 216.57 65.18L216.88 62.56Q216.9 62.45 216.99 62.38Q217.08 62.3 217.19 62.3H227.2Q227.44 62.3 227.44 62.56ZM234.86 73.61Q234.86 73.1 234.91 72.84L236.16 62.56Q236.18 62.45 236.26 62.38Q236.34 62.3 236.45 62.3H239.48Q239.59 62.3 239.66 62.38Q239.73 62.45 239.7 62.56L238.43 73.01Q238.41 73.12 238.41 73.32Q238.41 73.98 238.77 74.37Q239.13 74.75 239.75 74.75Q240.43 74.75 240.9 74.27Q241.38 73.78 241.46 73.01L242.76 62.56Q242.78 62.45 242.86 62.38Q242.94 62.3 243.05 62.3H246.08Q246.19 62.3 246.26 62.38Q246.33 62.45 246.3 62.56L245.03 72.84Q244.85 74.33 244.08 75.48Q243.31 76.62 242.09 77.25Q240.87 77.88 239.35 77.88Q237.28 77.88 236.07 76.72Q234.86 75.57 234.86 73.61ZM257.19 62.3H260.2Q260.44 62.3 260.44 62.56L258.62 77.44Q258.6 77.55 258.51 77.62Q258.42 77.7 258.31 77.7H255.16Q254.94 77.7 254.88 77.5L252.37 69.36Q252.33 69.3 252.28 69.31Q252.24 69.32 252.24 69.41L251.29 77.44Q251.27 77.55 251.19 77.62Q251.12 77.7 251.01 77.7H247.99Q247.88 77.7 247.82 77.62Q247.75 77.55 247.77 77.44L249.6 62.56Q249.62 62.45 249.7 62.38Q249.77 62.3 249.88 62.3H253.03Q253.23 62.3 253.29 62.5L255.8 70.59Q255.82 70.66 255.87 70.66Q255.91 70.66 255.93 70.57L256.9 62.56Q256.9 62.45 256.99 62.38Q257.08 62.3 257.19 62.3ZM262 77.44 263.83 62.56Q263.85 62.45 263.92 62.38Q264 62.3 264.11 62.3H267.15Q267.26 62.3 267.32 62.38Q267.39 62.45 267.37 62.56L265.54 77.44Q265.52 77.55 265.44 77.62Q265.37 77.7 265.26 77.7H262.22Q262.11 77.7 262.04 77.62Q261.98 77.55 262 77.44ZM272.14 77.48 270.29 62.59V62.54Q270.29 62.3 270.57 62.3H273.85Q274.09 62.3 274.09 62.54L274.78 71.94Q274.8 72 274.84 72Q274.89 72 274.91 71.94L277.86 62.54Q277.92 62.3 278.16 62.3H281.35Q281.49 62.3 281.55 62.38Q281.62 62.45 281.55 62.59L276.03 77.48Q275.94 77.7 275.7 77.7H272.4Q272.16 77.7 272.14 77.48ZM293.29 65.42H287.79Q287.71 65.42 287.66 65.53L287.33 68.28Q287.33 68.39 287.42 68.39H290.74Q290.98 68.39 290.98 68.66L290.65 71.25Q290.63 71.36 290.55 71.44Q290.48 71.52 290.37 71.52H287.05Q286.96 71.52 286.91 71.63L286.56 74.47Q286.56 74.58 286.67 74.58H292.17Q292.28 74.58 292.35 74.65Q292.41 74.73 292.39 74.84L292.08 77.44Q292.06 77.55 291.97 77.62Q291.89 77.7 291.78 77.7H282.89Q282.78 77.7 282.71 77.62Q282.65 77.55 282.67 77.44L284.49 62.56Q284.52 62.45 284.59 62.38Q284.67 62.3 284.78 62.3H293.67Q293.91 62.3 293.91 62.56L293.58 65.16Q293.56 65.27 293.48 65.35Q293.4 65.42 293.29 65.42ZM301.74 77.48 300.46 71.65Q300.42 71.56 300.35 71.56H299.49Q299.45 71.56 299.41 71.59Q299.38 71.63 299.38 71.67L298.68 77.44Q298.66 77.55 298.58 77.62Q298.5 77.7 298.39 77.7H295.36Q295.25 77.7 295.18 77.62Q295.11 77.55 295.14 77.44L296.96 62.56Q296.98 62.45 297.06 62.38Q297.14 62.3 297.25 62.3H302.7Q304.51 62.3 305.56 63.39Q306.62 64.48 306.62 66.3Q306.62 66.81 306.58 67.07Q306.42 68.44 305.72 69.48Q305.01 70.53 303.91 71.06Q303.85 71.08 303.85 71.19L305.43 77.39V77.46Q305.43 77.7 305.17 77.7H302Q301.78 77.7 301.74 77.48ZM300.13 65.53 299.76 68.66Q299.71 68.77 299.84 68.77H301.34Q302.11 68.77 302.59 68.24Q303.08 67.71 303.08 66.81Q303.08 66.17 302.71 65.8Q302.35 65.42 301.76 65.42H300.26Q300.17 65.42 300.13 65.53ZM308.57 74.03Q308.57 73.85 308.62 73.45L308.7 72.88Q308.73 72.77 308.8 72.69Q308.88 72.62 308.99 72.62H311.98Q312.09 72.62 312.16 72.69Q312.22 72.77 312.2 72.88L312.16 73.28Q312.07 73.89 312.49 74.32Q312.91 74.75 313.7 74.75Q314.42 74.75 314.81 74.34Q315.19 73.94 315.19 73.39Q315.19 72.88 314.75 72.53Q314.31 72.18 313.06 71.5Q312 70.92 311.27 70.41Q310.53 69.89 310 69.05Q309.47 68.22 309.47 67.1Q309.47 65.64 310.2 64.51Q310.93 63.38 312.18 62.75Q313.43 62.12 314.95 62.12Q317.02 62.12 318.26 63.22Q319.51 64.32 319.51 66.13Q319.51 66.3 319.46 66.74L319.42 67.16Q319.4 67.27 319.31 67.35Q319.22 67.43 319.11 67.43H316.14Q315.9 67.43 315.9 67.16L315.96 66.79Q316.03 66.15 315.63 65.7Q315.24 65.25 314.47 65.25Q313.87 65.25 313.49 65.58Q313.1 65.91 313.02 66.48Q312.97 66.9 313.17 67.22Q313.37 67.54 313.83 67.84Q314.29 68.15 315.26 68.68L315.88 69.05Q316.87 69.67 317.43 70.11Q317.99 70.55 318.38 71.23Q318.78 71.91 318.78 72.84Q318.78 73.01 318.74 73.41Q318.47 75.48 316.94 76.68Q315.41 77.88 313.17 77.88Q311.04 77.88 309.8 76.83Q308.57 75.79 308.57 74.03ZM321.28 77.44 323.11 62.56Q323.13 62.45 323.21 62.38Q323.28 62.3 323.39 62.3H326.43Q326.54 62.3 326.61 62.38Q326.67 62.45 326.65 62.56L324.82 77.44Q324.8 77.55 324.72 77.62Q324.65 77.7 324.54 77.7H321.5Q321.39 77.7 321.33 77.62Q321.26 77.55 321.28 77.44ZM340.15 62.56 339.82 65.18Q339.8 65.29 339.72 65.37Q339.65 65.45 339.54 65.45H336.32Q336.21 65.45 336.21 65.56L334.76 77.44Q334.74 77.55 334.65 77.62Q334.56 77.7 334.45 77.7H331.44Q331.33 77.7 331.26 77.62Q331.2 77.55 331.22 77.44L332.67 65.56Q332.67 65.45 332.58 65.45H329.5Q329.39 65.45 329.33 65.37Q329.26 65.29 329.28 65.18L329.59 62.56Q329.61 62.45 329.7 62.38Q329.79 62.3 329.9 62.3H339.91Q340.15 62.3 340.15 62.56ZM347.67 77.46 347.47 75.52Q347.45 75.43 347.38 75.43H343.78Q343.71 75.43 343.64 75.52L342.98 77.46Q342.92 77.7 342.68 77.7H339.55Q339.29 77.7 339.38 77.41L345.01 62.52Q345.1 62.3 345.34 62.3H349.08Q349.32 62.3 349.34 62.52L351.34 77.41V77.46Q351.34 77.7 351.08 77.7H347.91Q347.67 77.7 347.67 77.46ZM344.77 72.62H347.03Q347.16 72.62 347.16 72.49L346.64 67.03Q346.64 66.94 346.59 66.94Q346.55 66.94 346.5 67.03L344.66 72.51Q344.63 72.62 344.77 72.62ZM354.26 77.44 356.09 62.56Q356.11 62.45 356.19 62.38Q356.27 62.3 356.38 62.3H359.41Q359.52 62.3 359.59 62.38Q359.65 62.45 359.63 62.56L357.81 77.44Q357.78 77.55 357.71 77.62Q357.63 77.7 357.52 77.7H354.48Q354.37 77.7 354.31 77.62Q354.24 77.55 354.26 77.44ZM367.79 77.48 366.51 71.65Q366.47 71.56 366.4 71.56H365.54Q365.5 71.56 365.47 71.59Q365.43 71.63 365.43 71.67L364.73 77.44Q364.71 77.55 364.63 77.62Q364.55 77.7 364.44 77.7H361.41Q361.3 77.7 361.23 77.62Q361.17 77.55 361.19 77.44L363.01 62.56Q363.04 62.45 363.11 62.38Q363.19 62.3 363.3 62.3H368.76Q370.56 62.3 371.62 63.39Q372.67 64.48 372.67 66.3Q372.67 66.81 372.63 67.07Q372.47 68.44 371.77 69.48Q371.07 70.53 369.97 71.06Q369.9 71.08 369.9 71.19L371.48 77.39V77.46Q371.48 77.7 371.22 77.7H368.05Q367.83 77.7 367.79 77.48ZM366.18 65.53 365.81 68.66Q365.76 68.77 365.9 68.77H367.39Q368.16 68.77 368.65 68.24Q369.13 67.71 369.13 66.81Q369.13 66.17 368.77 65.8Q368.4 65.42 367.81 65.42H366.31Q366.23 65.42 366.18 65.53ZM385.1 65.42H379.6Q379.51 65.42 379.46 65.53L379.13 68.28Q379.13 68.39 379.22 68.39H382.54Q382.79 68.39 382.79 68.66L382.46 71.25Q382.43 71.36 382.36 71.44Q382.28 71.52 382.17 71.52H378.85Q378.76 71.52 378.72 71.63L378.36 74.47Q378.36 74.58 378.47 74.58H383.97Q384.08 74.58 384.15 74.65Q384.22 74.73 384.19 74.84L383.89 77.44Q383.86 77.55 383.78 77.62Q383.69 77.7 383.58 77.7H374.69Q374.58 77.7 374.51 77.62Q374.45 77.55 374.47 77.44L376.3 62.56Q376.32 62.45 376.39 62.38Q376.47 62.3 376.58 62.3H385.47Q385.71 62.3 385.71 62.56L385.38 65.16Q385.36 65.27 385.28 65.35Q385.21 65.42 385.1 65.42Z" fill="#1238C4"/></svg>